<svg id="Layer_1" data-name="Layer 1" xmlns="http://www.w3.org/2000/svg" viewBox="0 0 1920 1080"><defs><style>.cls-1{fill:#fff;}</style></defs><title>vector file</title><rect x="-52.96" y="-74.81" width="2025.93" height="1229.63"/><polygon class="cls-1" points="1089.12 688.7 1089.12 548.02 1203.02 392.57 1154.19 392.57 1069.25 508.83 984.67 392.57 935.99 392.57 1050.15 548.8 1050.15 688.7 1089.12 688.7"/><polygon class="cls-1" points="820.35 392.57 709.63 688.69 751.67 688.69 791.55 581.56 838.52 457.27 885.07 581.48 924.6 688.69 966.09 688.69 855.94 392.57 820.35 392.57"/><path class="cls-1" d="M428.92,430.66H575.61c25.86,0,47.56,19,50.47,44.11a50.12,50.12,0,0,1-48,55.66H517.89V447.07H478.53V688.69h39.36V571.23L615,688.69H666L567.4,569.36h7.77a95.39,95.39,0,0,0,46.68-12.22l.14-.08a89.82,89.82,0,0,0,43.36-76.52c0-49.2-39.85-89.23-88.82-89.23H389.88V769.69H1530.12v-39H428.92Z"/><polygon class="cls-1" points="389.88 310.31 389.88 349.34 1491.08 349.34 1491.08 649.35 1263.3 649.35 1451.15 392.89 1214.38 392.89 1214.38 431.83 1373.53 431.83 1186.64 688.69 1530.13 688.69 1530.13 310.31 389.88 310.31"/></svg>